<?xml version="1.0" encoding="utf-8"?>
<!-- Generator: Adobe Illustrator 19.0.0, SVG Export Plug-In . SVG Version: 6.00 Build 0)  -->
<svg version="1.1" id="Layer_1" xmlns="http://www.w3.org/2000/svg" xmlns:xlink="http://www.w3.org/1999/xlink" x="0px" y="0px"
	 viewBox="0 0 1004.9 967.1" style="enable-background:new 0 0 1004.9 967.1;" xml:space="preserve">
<style type="text/css">
	.st0{fill:#3879D6;}
	.st1{clip-path:url(#XMLID_95_);fill:#599BD1;}
	.st2{opacity:0.15;clip-path:url(#XMLID_95_);fill:#1F5AA0;}
	.st3{clip-path:url(#XMLID_114_);fill:#4B8FD1;}
	.st4{opacity:0.2;clip-path:url(#XMLID_114_);fill:#1F5AA0;}
	.st5{clip-path:url(#XMLID_115_);fill:#4083D3;}
	.st6{opacity:0.3;clip-path:url(#XMLID_115_);fill:#1F5AA0;}
	.st7{clip-path:url(#XMLID_116_);fill:#3879D6;}
	.st8{clip-path:url(#XMLID_116_);fill:url(#XMLID_117_);}
	.st9{opacity:0.5;clip-path:url(#XMLID_116_);fill:#1F5AA0;}
	.st10{clip-path:url(#XMLID_118_);fill:#599BD1;}
	.st11{opacity:0.15;clip-path:url(#XMLID_118_);fill:#1F5AA0;}
	.st12{clip-path:url(#XMLID_119_);fill:#4B8FD1;}
	.st13{opacity:0.2;clip-path:url(#XMLID_119_);fill:#1F5AA0;}
	.st14{clip-path:url(#XMLID_120_);fill:#4083D3;}
	.st15{opacity:0.3;clip-path:url(#XMLID_120_);fill:#1F5AA0;}
	.st16{clip-path:url(#XMLID_121_);fill:#3879D6;}
	.st17{clip-path:url(#XMLID_121_);fill:url(#XMLID_122_);}
	.st18{opacity:0.5;clip-path:url(#XMLID_121_);fill:#1F5AA0;}
	.st19{opacity:0.15;clip-path:url(#XMLID_123_);fill:#1F5AA0;}
	.st20{clip-path:url(#XMLID_124_);fill:#4B8FD1;}
	.st21{opacity:0.2;clip-path:url(#XMLID_124_);fill:#1F5AA0;}
	.st22{clip-path:url(#XMLID_125_);fill:#4083D3;}
	.st23{opacity:0.3;clip-path:url(#XMLID_125_);fill:#1F5AA0;}
	.st24{clip-path:url(#XMLID_126_);fill:#3879D6;}
	.st25{clip-path:url(#XMLID_126_);fill:url(#XMLID_127_);}
	.st26{opacity:0.5;clip-path:url(#XMLID_126_);fill:#1F5AA0;}
	.st27{clip-path:url(#XMLID_128_);fill:#599BD1;}
	.st28{opacity:0.15;clip-path:url(#XMLID_128_);fill:#1F5AA0;}
	.st29{clip-path:url(#XMLID_129_);fill:#4B8FD1;}
	.st30{opacity:0.2;clip-path:url(#XMLID_129_);fill:#1F5AA0;}
	.st31{clip-path:url(#XMLID_130_);fill:#4083D3;}
	.st32{opacity:0.3;clip-path:url(#XMLID_130_);fill:#1F5AA0;}
	.st33{clip-path:url(#XMLID_131_);fill:#3879D6;}
	.st34{clip-path:url(#XMLID_131_);fill:url(#XMLID_132_);}
	.st35{opacity:0.5;clip-path:url(#XMLID_131_);fill:#1F5AA0;}
</style>
<rect id="XMLID_27_" x="-26.9" y="434.5" class="st0" width="1078.4" height="591"/>
<g id="Mountain">
	<g id="XMLID_42_">
		<defs>
			<path id="XMLID_43_" d="M952.5,363.3c38.5-16.6,79.1-34.4,112.3-60.5c10.3-8.1,13.7-11.4,23.8-15.9c7.3-3.3,12.5,0.8,20.6-10.1
				c26.7,7.4,69.9,47.9,98.4,57.9c28.8,10.1,58.3,15.7,87.1,24.8c13.1,4.1,15.9,30.7,15.9,30.7H960.9c0,0-5.5-20.9-6.3-21.8
				C954.8,362.2,955.7,357,952.5,363.3z"/>
		</defs>
		<clipPath id="XMLID_95_">
			<use xlink:href="#XMLID_43_"  style="overflow:visible;"/>
		</clipPath>
		<path id="XMLID_45_" class="st1" d="M952.5,363.3c38.5-16.6,79.1-34.4,112.3-60.5c10.3-8.1,13.7-11.4,23.8-15.9
			c7.3-3.3,12.5,0.8,20.6-10.1c26.7,7.4,69.9,47.9,98.4,57.9c28.8,10.1,58.3,15.7,87.1,24.8c13.1,4.1,15.9,30.7,15.9,30.7H960.9
			c0,0-5.5-20.9-6.3-21.8C954.8,362.2,955.7,357,952.5,363.3z"/>
		<path id="XMLID_44_" class="st2" d="M1109.3,268.4l3.6,17.8l-4.2,5.9l11.3,13.7l-14.8-6.5l-7.1-7.1l-17.2,11.9l-8.9,11.3
			l-14.8,8.3l61.1,24.9c0,0-92,3-94.4,2.4c-2.4-0.6-39.7,3.1-40,0.9c-0.3-2.1,8-30,8-30l58.2-32.1L1109.3,268.4z"/>
	</g>
	<g id="XMLID_38_">
		<defs>
			<path id="XMLID_39_" d="M25.2,349c22.6-6.2,37.3-25.8,57.9-35.4c25.5-11.9,55.9-19.6,63.5-51.6c6.9,0.7,10.4-0.8,15.7-4
				c1.5,2,2.6,2.8,4,5.3c14.3-11.4,17.4,12.9,26.2,21.1c14.3,13.4,35.3,13.9,51.7,20.5c26.5,10.7,50.9,22,78.8,30.2
				c28.5,8.4,69.9,31.4,97.1,40.7c-22.2-2.3-370.8,10-396.5,6.8C20.7,374.3,21.1,349.3,25.2,349z"/>
		</defs>
		<clipPath id="XMLID_114_">
			<use xlink:href="#XMLID_39_"  style="overflow:visible;"/>
		</clipPath>
		<path id="XMLID_41_" class="st3" d="M25.2,349c22.6-6.2,37.3-25.8,57.9-35.4c25.5-11.9,55.9-19.6,63.5-51.6
			c6.9,0.7,10.4-0.8,15.7-4c1.5,2,2.6,2.8,4,5.3c14.3-11.4,17.4,12.9,26.2,21.1c14.3,13.4,35.3,13.9,51.7,20.5
			c26.5,10.7,50.9,22,78.8,30.2c28.5,8.4,69.9,31.4,97.1,40.7c-22.2-2.3-370.8,10-396.5,6.8C20.7,374.3,21.1,349.3,25.2,349z"/>
		<polygon id="XMLID_40_" class="st4" points="177.9,245.9 156.6,267.2 150.6,276.7 147.1,299.3 116.2,336.1 123.3,313.5 
			103.2,318.3 61.6,344.4 3.4,364.6 1.1,342 52.1,315.9 107.9,280.3 		"/>
	</g>
	<g id="XMLID_34_">
		<defs>
			<path id="XMLID_35_" d="M475.2,363.3c12.6-5.3,27.4-4.5,41-8.4c19.7-5.7,36.2-15.2,54.3-24.5c27.1-13.9,60.1-19.1,86.4-33.9
				c14.7-8.3,23.7-19.1,40.1-24.1c12.8-3.9,23.2-5.4,34.7-13.6c8.9-6.3,16.3-21.2,24.9-25.5c7.5-3.7,16.8-0.5,24.9-3.5
				c14.1-5.3,26.3-15.1,42.8-5.4c7,4.1,10,11.3,14.6,17.7c10.1,14.1,15.7,17.7,32.5,24.2c40.5,15.7,75.6,32.8,116.6,46.8
				c49.3,16.8,193.9,38.3,245.6,41.2c0.4,7.5,27,55.4,27,55.4l-788.9,1.8C471.8,411.5,474.4,375.1,475.2,363.3z"/>
		</defs>
		<clipPath id="XMLID_115_">
			<use xlink:href="#XMLID_35_"  style="overflow:visible;"/>
		</clipPath>
		<path id="XMLID_37_" class="st5" d="M475.2,363.3c12.6-5.3,27.4-4.5,41-8.4c19.7-5.7,36.2-15.2,54.3-24.5
			c27.1-13.9,60.1-19.1,86.4-33.9c14.7-8.3,23.7-19.1,40.1-24.1c12.8-3.9,23.2-5.4,34.7-13.6c8.9-6.3,16.3-21.2,24.9-25.5
			c7.5-3.7,16.8-0.5,24.9-3.5c14.1-5.3,26.3-15.1,42.8-5.4c7,4.1,10,11.3,14.6,17.7c10.1,14.1,15.7,17.7,32.5,24.2
			c40.5,15.7,75.6,32.8,116.6,46.8c49.3,16.8,193.9,38.3,245.6,41.2c0.4,7.5,27,55.4,27,55.4l-788.9,1.8
			C471.8,411.5,474.4,375.1,475.2,363.3z"/>
		<path id="XMLID_36_" class="st6" d="M825,201.9l-39.8,40.4l18.4,17.8l33.2,4.7l-34.4,2.4L784,255.9l-20.2-11.9l-10.1,31.5
			l8.3,21.4l105.7,36.8l32.1,33.2c0,0-42.7,8.3-46.3,7.1c-3.6-1.2-178.1,4.7-178.1,4.7l-111.6-8.3l2.4-58.2l60.5-46.3L825,201.9z"/>
	</g>
	<g id="XMLID_28_">
		<defs>
			<path id="XMLID_29_" d="M-16.3,382.9c25.1,0.3,49.6-16.9,75.6-19.6c19.3-2,37.1-3.2,55.2-9.1c21-6.9,43-15.8,63.8-25.1
				c28.6-12.7,47.1-34.6,72.6-49.6c11.9-7,23.7-10.4,34.7-20.4c9.5-8.5,19-23.1,31.2-26.7c14.9-4.4,31.2,5,45.9,2.3
				c12.2-2.2,31.4-18.8,41-26.8c14.4-12,25.4-26.5,39.9-38.3c6.4-5.3,12.3-9.9,18.3-15.6c6.2-5.8,8.2-16.2,19.1-6.5
				c14.2-11,34.9,5.6,43.6,16.7c10.9,13.9,14.7,35.1,30.3,46.3c8.9,6.5,17.7,6,27.5,9.9c9.3,3.6,14.8,8,23.7,13.7
				c10.6,6.9,23.8,10.6,34.6,17.6c11.4,7.4,20.3,17.7,32.2,24.7c20.5,12.1,45.3,15.9,66.9,24.2c25.1,9.7,46.9,19.6,73.3,23.3
				c37.5,5.3,71.8,22.1,109.1,27.7c30.1,4.5,58.5,7.2,88.5,11.6c15,2.2,28.7,7.8,43.6,8.9c20.2,1.5,40.5-1.2,60.6,1.3
				c26,3.3,51.2,6.6,77.2,9.3c24.9,2.6,25.8,58.9,25.8,58.9l-1237.6,1.8C-19.6,443.5-24.2,392.1-16.3,382.9z"/>
		</defs>
		<clipPath id="XMLID_116_">
			<use xlink:href="#XMLID_29_"  style="overflow:visible;"/>
		</clipPath>
		<path id="XMLID_33_" class="st7" d="M-16.3,382.9c25.1,0.3,49.6-16.9,75.6-19.6c19.3-2,37.1-3.2,55.2-9.1
			c21-6.9,43-15.8,63.8-25.1c28.6-12.7,47.1-34.6,72.6-49.6c11.9-7,23.7-10.4,34.7-20.4c9.5-8.5,19-23.1,31.2-26.7
			c14.9-4.4,31.2,5,45.9,2.3c12.2-2.2,31.4-18.8,41-26.8c14.4-12,25.4-26.5,39.9-38.3c6.4-5.3,12.3-9.9,18.3-15.6
			c6.2-5.8,8.2-16.2,19.1-6.5c14.2-11,34.9,5.6,43.6,16.7c10.9,13.9,14.7,35.1,30.3,46.3c8.9,6.5,17.7,6,27.5,9.9
			c9.3,3.6,14.8,8,23.7,13.7c10.6,6.9,23.8,10.6,34.6,17.6c11.4,7.4,20.3,17.7,32.2,24.7c20.5,12.1,45.3,15.9,66.9,24.2
			c25.1,9.7,46.9,19.6,73.3,23.3c37.5,5.3,71.8,22.1,109.1,27.7c30.1,4.5,58.5,7.2,88.5,11.6c15,2.2,28.7,7.8,43.6,8.9
			c20.2,1.5,40.5-1.2,60.6,1.3c26,3.3,51.2,6.6,77.2,9.3c24.9,2.6,25.8,58.9,25.8,58.9l-1237.6,1.8
			C-19.6,443.5-24.2,392.1-16.3,382.9z"/>
		<linearGradient id="XMLID_117_" gradientUnits="userSpaceOnUse" x1="492.5202" y1="258.7447" x2="492.5202" y2="126.4693">
			<stop  offset="0" style="stop-color:#3879D6"/>
			<stop  offset="0.2017" style="stop-color:#74A1E2"/>
			<stop  offset="0.3961" style="stop-color:#A6C3ED"/>
			<stop  offset="0.578" style="stop-color:#CCDDF5"/>
			<stop  offset="0.7446" style="stop-color:#E8F0FA"/>
			<stop  offset="0.8905" style="stop-color:#F9FBFE"/>
			<stop  offset="1" style="stop-color:#FFFFFF"/>
		</linearGradient>
		<path id="XMLID_32_" class="st8" d="M333.5,229.2c28.6,14.6,50.7-5,77-15.3c0.9,1.7,1.6,2.2,2.6,3.5c6.4-2.9,16.6-11.5,23.5-8.2
			c0.5,8.5,0.8,16.5,1.6,24.6c13.9-4.5,12.7-30.5,31.6-13.9c9.4,8.3,27.6,39.7,40.5,38.8c0.3-5.8,2.3-10.6,2.7-16.3
			c1.4,0,3-0.3,4.4-0.4c1.8-6.4-1.5-38.8,2.5-40.2c9.6-3.5,13,26.6,20.1,27.2c-1.1-13.1,12.8-2.4,18.9,0.5c10.5,5,16.5,5.9,25.8,6.9
			c17.4,1.8,51.2,27.3,67.1,16.6c-3.5-6.3-16.3-12.4-22.5-17.8c-11.3-10-20.3-17.9-34.5-23.7c-17.5-7.2-27.2-8.3-39-23.7
			c-5.3-7-11-13.1-15-21c-3.6-7.1-4.6-16.5-9.8-22.2c-12.7-13.7-40.8-20.5-58.5-17.4c-19.9,3.5-29.7,28.4-44.2,40.3
			c-12.2,10-23.2,20.7-34.1,32c-6,6.2-12,16.5-18.5,21.7c-12.4,10-27.2,0.3-39.4,7c-0.1,2.7-0.3,0.5,0.9,2.7
			C338.7,229.3,339.5,230.7,333.5,229.2z"/>
		<path id="XMLID_31_" class="st9" d="M496.1,127.7l7.8,18.5l-19.6,4.7l-11.3,22l-3-9.5l-73,96.8l1.2-16.6l-48.1,16l-19-3
			c0,0-20.2-7.1-38,17.8s-42.7,22-55.2,33.2s-47.5,27.3-47.5,27.3l-64.7,12.5l53.4-28.5l74.8-51.6l98.5-62.3h37.4l45.7-41l28.5-27.3
			l27.3,0.6L496.1,127.7z"/>
		<path id="XMLID_30_" class="st9" d="M469.4,191.8l-3.9,37.6c-2.1,20-9.8,39-22.3,54.8l-23.6,29.9l17.8-46.9
			c0,0-28.5,29.7-87.3,39.2c0,0,71.8-30.3,90.8-68.3C459.9,200.1,469.4,191.8,469.4,191.8z"/>
	</g>
</g>
<g id="Mountain_1_">
	<g id="XMLID_60_">
		<defs>
			<path id="XMLID_61_" d="M1039.1,627.2c22.8-9.8,46.8-20.3,66.5-35.8c6.1-4.8,8.1-6.7,14.1-9.4c4.3-1.9,7.4,0.5,12.2-6
				c15.8,4.4,41.4,28.3,58.2,34.2c17.1,6,34.5,9.3,51.5,14.7c7.8,2.4,9.4,18.2,9.4,18.2h-206.9c0,0-3.2-12.4-3.7-12.9
				C1040.5,626.6,1041,623.5,1039.1,627.2z"/>
		</defs>
		<clipPath id="XMLID_118_">
			<use xlink:href="#XMLID_61_"  style="overflow:visible;"/>
		</clipPath>
		<path id="XMLID_63_" class="st10" d="M1039.1,627.2c22.8-9.8,46.8-20.3,66.5-35.8c6.1-4.8,8.1-6.7,14.1-9.4
			c4.3-1.9,7.4,0.5,12.2-6c15.8,4.4,41.4,28.3,58.2,34.2c17.1,6,34.5,9.3,51.5,14.7c7.8,2.4,9.4,18.2,9.4,18.2h-206.9
			c0,0-3.2-12.4-3.7-12.9C1040.5,626.6,1041,623.5,1039.1,627.2z"/>
		<path id="XMLID_62_" class="st11" d="M1131.9,571.1l2.1,10.5l-2.5,3.5l6.7,8.1l-8.8-3.9l-4.2-4.2l-10.2,7l-5.3,6.7l-8.8,4.9
			l36.2,14.8c0,0-54.5,1.8-55.9,1.4s-23.5,1.8-23.7,0.6c-0.2-1.3,4.7-17.8,4.7-17.8l34.4-19L1131.9,571.1z"/>
	</g>
	<g id="XMLID_56_">
		<defs>
			<path id="XMLID_57_" d="M490.3,618.8c13.4-3.6,22.1-15.2,34.3-21c15.1-7.1,33.1-11.6,37.6-30.5c4.1,0.4,6.2-0.5,9.3-2.4
				c0.9,1.2,1.6,1.7,2.3,3.1c8.5-6.7,10.3,7.6,15.5,12.5c8.5,8,20.9,8.2,30.6,12.1c15.7,6.3,30.1,13,46.6,17.9
				c16.9,5,41.4,18.6,57.5,24.1c-13.1-1.4-219.5,5.9-234.7,4C487.6,633.8,487.9,619,490.3,618.8z"/>
		</defs>
		<clipPath id="XMLID_119_">
			<use xlink:href="#XMLID_57_"  style="overflow:visible;"/>
		</clipPath>
		<path id="XMLID_59_" class="st12" d="M490.3,618.8c13.4-3.6,22.1-15.2,34.3-21c15.1-7.1,33.1-11.6,37.6-30.5
			c4.1,0.4,6.2-0.5,9.3-2.4c0.9,1.2,1.6,1.7,2.3,3.1c8.5-6.7,10.3,7.6,15.5,12.5c8.5,8,20.9,8.2,30.6,12.1
			c15.7,6.3,30.1,13,46.6,17.9c16.9,5,41.4,18.6,57.5,24.1c-13.1-1.4-219.5,5.9-234.7,4C487.6,633.8,487.9,619,490.3,618.8z"/>
		<polygon id="XMLID_58_" class="st13" points="580.7,557.7 568,570.4 564.5,576 562.4,589.4 544.1,611.1 548.4,597.8 536.4,600.6 
			511.8,616.1 477.4,628 476,614.7 506.2,599.2 539.2,578.1 		"/>
	</g>
	<g id="XMLID_52_">
		<defs>
			<path id="XMLID_53_" d="M756.6,627.2c7.5-3.2,16.2-2.7,24.2-5c11.6-3.4,21.4-9,32.1-14.5c16-8.2,35.6-11.3,51.1-20.1
				c8.7-4.9,14-11.3,23.7-14.3c7.6-2.3,13.7-3.2,20.5-8c5.2-3.7,9.7-12.6,14.8-15.1c4.4-2.2,9.9-0.3,14.7-2.1
				c8.3-3.2,15.6-8.9,25.4-3.2c4.2,2.4,5.9,6.7,8.6,10.5c6,8.4,9.3,10.5,19.3,14.3c24,9.3,44.7,19.4,69,27.7
				c29.2,9.9,114.8,22.6,145.3,24.4c0.2,4.4,16,32.8,16,32.8l-466.9,1.1C754.6,655.8,756.1,634.2,756.6,627.2z"/>
		</defs>
		<clipPath id="XMLID_120_">
			<use xlink:href="#XMLID_53_"  style="overflow:visible;"/>
		</clipPath>
		<path id="XMLID_55_" class="st14" d="M756.6,627.2c7.5-3.2,16.2-2.7,24.2-5c11.6-3.4,21.4-9,32.1-14.5c16-8.2,35.6-11.3,51.1-20.1
			c8.7-4.9,14-11.3,23.7-14.3c7.6-2.3,13.7-3.2,20.5-8c5.2-3.7,9.7-12.6,14.8-15.1c4.4-2.2,9.9-0.3,14.7-2.1
			c8.3-3.2,15.6-8.9,25.4-3.2c4.2,2.4,5.9,6.7,8.6,10.5c6,8.4,9.3,10.5,19.3,14.3c24,9.3,44.7,19.4,69,27.7
			c29.2,9.9,114.8,22.6,145.3,24.4c0.2,4.4,16,32.8,16,32.8l-466.9,1.1C754.6,655.8,756.1,634.2,756.6,627.2z"/>
		<path id="XMLID_54_" class="st15" d="M963.6,531.8l-23.5,23.9l10.9,10.5l19.7,2.8l-20.4,1.4l-10.9-6.7l-11.9-7l-6,18.6l4.9,12.6
			l62.5,21.8l19,19.7c0,0-25.3,4.9-27.4,4.2s-105.4,2.8-105.4,2.8l-66-4.9l1.4-34.4l35.8-27.4L963.6,531.8z"/>
	</g>
	<g id="XMLID_46_">
		<defs>
			<path id="XMLID_47_" d="M465.7,638.8c14.9,0.2,29.3-10,44.7-11.6c11.4-1.2,21.9-1.9,32.6-5.4c12.4-4.1,25.4-9.3,37.8-14.8
				c16.9-7.5,27.9-20.5,42.9-29.4c7.1-4.2,14-6.2,20.6-12c5.6-5,11.2-13.7,18.4-15.8c8.8-2.6,18.5,2.9,27.2,1.3
				c7.2-1.3,18.6-11.1,24.3-15.8c8.5-7.1,15-15.7,23.6-22.7c3.8-3.1,7.3-5.8,10.9-9.2c3.7-3.4,4.8-9.6,11.3-3.8
				c8.4-6.5,20.7,3.3,25.8,9.9c6.4,8.2,8.7,20.7,17.9,27.4c5.3,3.8,10.5,3.6,16.3,5.8c5.5,2.1,8.8,4.7,14,8.1
				c6.3,4.1,14.1,6.3,20.5,10.4c6.7,4.4,12,10.5,19.1,14.6c12.1,7.2,26.8,9.4,39.6,14.3c14.9,5.7,27.8,11.6,43.4,13.8
				c22.2,3.1,42.5,13.1,64.6,16.4c17.8,2.6,34.6,4.3,52.4,6.9c8.9,1.3,17,4.6,25.8,5.3c11.9,0.9,24-0.7,35.8,0.8
				c15.4,1.9,30.3,3.9,45.7,5.5c14.7,1.5,15.3,34.8,15.3,34.8l-732.5,1.1C463.7,674.7,461,644.3,465.7,638.8z"/>
		</defs>
		<clipPath id="XMLID_121_">
			<use xlink:href="#XMLID_47_"  style="overflow:visible;"/>
		</clipPath>
		<path id="XMLID_51_" class="st16" d="M465.7,638.8c14.9,0.2,29.3-10,44.7-11.6c11.4-1.2,21.9-1.9,32.6-5.4
			c12.4-4.1,25.4-9.3,37.8-14.8c16.9-7.5,27.9-20.5,42.9-29.4c7.1-4.2,14-6.2,20.6-12c5.6-5,11.2-13.7,18.4-15.8
			c8.8-2.6,18.5,2.9,27.2,1.3c7.2-1.3,18.6-11.1,24.3-15.8c8.5-7.1,15-15.7,23.6-22.7c3.8-3.1,7.3-5.8,10.9-9.2
			c3.7-3.4,4.8-9.6,11.3-3.8c8.4-6.5,20.7,3.3,25.8,9.9c6.4,8.2,8.7,20.7,17.9,27.4c5.3,3.8,10.5,3.6,16.3,5.8
			c5.5,2.1,8.8,4.7,14,8.1c6.3,4.1,14.1,6.3,20.5,10.4c6.7,4.4,12,10.5,19.1,14.6c12.1,7.2,26.8,9.4,39.6,14.3
			c14.9,5.7,27.8,11.6,43.4,13.8c22.2,3.1,42.5,13.1,64.6,16.4c17.8,2.6,34.6,4.3,52.4,6.9c8.9,1.3,17,4.6,25.8,5.3
			c11.9,0.9,24-0.7,35.8,0.8c15.4,1.9,30.3,3.9,45.7,5.5c14.7,1.5,15.3,34.8,15.3,34.8l-732.5,1.1
			C463.7,674.7,461,644.3,465.7,638.8z"/>
		<linearGradient id="XMLID_122_" gradientUnits="userSpaceOnUse" x1="766.8629" y1="565.3802" x2="766.8629" y2="487.0917">
			<stop  offset="0" style="stop-color:#3879D6"/>
			<stop  offset="0.2017" style="stop-color:#74A1E2"/>
			<stop  offset="0.3961" style="stop-color:#A6C3ED"/>
			<stop  offset="0.578" style="stop-color:#CCDDF5"/>
			<stop  offset="0.7446" style="stop-color:#E8F0FA"/>
			<stop  offset="0.8905" style="stop-color:#F9FBFE"/>
			<stop  offset="1" style="stop-color:#FFFFFF"/>
		</linearGradient>
		<path id="XMLID_50_" class="st17" d="M672.7,547.9c16.9,8.6,30-3,45.6-9c0.5,1,1,1.3,1.5,2.1c3.8-1.7,9.8-6.8,13.9-4.9
			c0.3,5,0.5,9.8,0.9,14.5c8.2-2.7,7.5-18.1,18.7-8.2c5.6,4.9,16.3,23.5,24,22.9c0.2-3.4,1.4-6.3,1.6-9.6c0.8,0,1.8-0.2,2.6-0.2
			c1.1-3.8-0.9-23,1.5-23.8c5.7-2.1,7.7,15.8,11.9,16.1c-0.7-7.7,7.6-1.4,11.2,0.3c6.2,2.9,9.8,3.5,15.2,4.1
			c10.3,1,30.3,16.1,39.7,9.8c-2.1-3.8-9.7-7.3-13.3-10.5c-6.7-5.9-12-10.6-20.4-14c-10.3-4.2-16.1-4.9-23.1-14
			c-3.2-4.1-6.5-7.7-8.9-12.4c-2.1-4.2-2.7-9.8-5.8-13.1c-7.5-8.1-24.2-12.1-34.6-10.3c-11.8,2.1-17.6,16.8-26.1,23.9
			c-7.2,5.9-13.8,12.3-20.2,18.9c-3.6,3.7-7.1,9.8-11,12.9c-7.3,5.9-16.1,0.2-23.3,4.1c-0.1,1.6-0.2,0.3,0.5,1.6
			C675.8,547.9,676.3,548.8,672.7,547.9z"/>
		<path id="XMLID_49_" class="st18" d="M769,487.8l4.6,10.9l-11.6,2.8l-6.7,13l-1.8-5.6l-43.2,57.3l0.7-9.8l-28.5,9.5l-11.2-1.8
			c0,0-11.9-4.2-22.5,10.5c-10.5,14.8-25.3,13-32.7,19.7c-7.4,6.7-28.1,16.2-28.1,16.2l-38.3,7.4l31.6-16.9l44.3-30.6l58.3-36.9
			h22.1l27.1-24.2l16.9-16.2l16.2,0.4L769,487.8z"/>
		<path id="XMLID_48_" class="st18" d="M753.2,525.8l-2.3,22.3c-1.2,11.8-5.8,23.1-13.2,32.4l-14,17.7l10.5-27.8
			c0,0-16.9,17.6-51.6,23.2c0,0,42.5-17.9,53.8-40.4S753.2,525.8,753.2,525.8z"/>
	</g>
</g>
<g id="Mountain_2_">
	<g id="XMLID_79_">
		<defs>
			<path id="XMLID_80_" d="M398.1,743.1c20.3-8.7,41.6-18.1,59-31.8c5.4-4.2,7.2-6,12.5-8.4c3.9-1.7,6.6,0.4,10.8-5.3
				c14.1,3.9,36.7,25.2,51.7,30.4c15.1,5.3,30.7,8.3,45.8,13c6.9,2.2,8.4,16.1,8.4,16.1H402.5c0,0-2.9-11-3.3-11.5
				C399.3,742.5,399.8,739.8,398.1,743.1z"/>
		</defs>
		<clipPath id="XMLID_123_">
			<use xlink:href="#XMLID_80_"  style="overflow:visible;"/>
		</clipPath>
		<path id="XMLID_81_" class="st19" d="M480.5,693.2l1.9,9.4l-2.2,3.1l5.9,7.2l-7.8-3.4l-3.7-3.7l-9.1,6.2l-4.7,5.9l-7.8,4.4
			l32.1,13.1c0,0-48.4,1.6-49.6,1.2s-20.9,1.6-21.1,0.5c-0.2-1.1,4.2-15.8,4.2-15.8l30.6-16.9L480.5,693.2z"/>
	</g>
	<g id="XMLID_75_">
		<defs>
			<path id="XMLID_76_" d="M-89.5,735.6c11.9-3.2,19.6-13.5,30.4-18.6c13.4-6.3,29.4-10.3,33.4-27.1c3.6,0.4,5.5-0.4,8.3-2.1
				c0.8,1.1,1.4,1.5,2.1,2.8c7.5-6,9.2,6.8,13.8,11.1C6,708.8,17,709,25.7,712.5c14,5.6,26.8,11.6,41.4,15.9
				c15,4.4,36.7,16.5,51.1,21.4c-11.7-1.2-195,5.3-208.5,3.6C-91.9,748.9-91.7,735.8-89.5,735.6z"/>
		</defs>
		<clipPath id="XMLID_124_">
			<use xlink:href="#XMLID_76_"  style="overflow:visible;"/>
		</clipPath>
		<path id="XMLID_78_" class="st20" d="M-89.5,735.6c11.9-3.2,19.6-13.5,30.4-18.6c13.4-6.3,29.4-10.3,33.4-27.1
			c3.6,0.4,5.5-0.4,8.3-2.1c0.8,1.1,1.4,1.5,2.1,2.8c7.5-6,9.2,6.8,13.8,11.1C6,708.8,17,709,25.7,712.5c14,5.6,26.8,11.6,41.4,15.9
			c15,4.4,36.7,16.5,51.1,21.4c-11.7-1.2-195,5.3-208.5,3.6C-91.9,748.9-91.7,735.8-89.5,735.6z"/>
		<polygon id="XMLID_77_" class="st21" points="-9.2,681.4 -20.4,692.6 -23.6,697.6 -25.4,709.5 -41.7,728.8 -37.9,717 -48.5,719.5 
			-70.4,733.2 -101,743.8 -102.2,732 -75.4,718.2 -46,699.5 		"/>
	</g>
	<g id="XMLID_71_">
		<defs>
			<path id="XMLID_72_" d="M147.1,743.1c6.6-2.8,14.4-2.4,21.5-4.4c10.3-3,19-8,28.6-12.9c14.2-7.3,31.6-10,45.4-17.8
				c7.7-4.4,12.5-10,21.1-12.7c6.7-2.1,12.2-2.8,18.2-7.1c4.7-3.3,8.6-11.2,13.1-13.4c3.9-1.9,8.8-0.2,13.1-1.9
				c7.4-2.8,13.8-7.9,22.5-2.9c3.7,2.2,5.3,5.9,7.7,9.3c5.3,7.4,8.2,9.3,17.1,12.7c21.3,8.2,39.7,17.3,61.3,24.6
				c25.9,8.8,102,20.1,129.1,21.7c0.2,3.9,14.2,29.2,14.2,29.2l-414.8,0.9C145.3,768.5,146.7,749.3,147.1,743.1z"/>
		</defs>
		<clipPath id="XMLID_125_">
			<use xlink:href="#XMLID_72_"  style="overflow:visible;"/>
		</clipPath>
		<path id="XMLID_74_" class="st22" d="M119.1,743.1c6.6-2.8,14.4-2.4,21.5-4.4c10.3-3,19-8,28.6-12.9c14.2-7.3,31.6-10,45.4-17.8
			c7.7-4.4,12.5-10,21.1-12.7c6.7-2.1,12.2-2.8,18.2-7.1c4.7-3.3,8.6-11.2,13.1-13.4c3.9-1.9,8.8-0.2,13.1-1.9
			c7.4-2.8,13.8-7.9,22.5-2.9c3.7,2.2,5.3,5.9,7.7,9.3c5.3,7.4,8.2,9.3,17.1,12.7c21.3,8.2,39.7,17.3,61.3,24.6
			c25.9,8.8,102,20.1,129.1,21.7c0.2,3.9,14.2,29.2,14.2,29.2l-414.8,0.9C117.3,768.5,118.7,749.3,119.1,743.1z"/>
		<path id="XMLID_73_" class="st23" d="M331,658.3l-20.9,21.2l9.7,9.4l17.5,2.5l-18.1,1.2l-9.7-5.9l-10.6-6.2L265.6,697l32.4,11.2
			l55.6,19.4l16.9,17.5c0,0-22.5,4.4-24.3,3.7s-93.6,2.5-93.6,2.5l-58.7-4.4l1.2-30.6l31.8-24.3L331,658.3z"/>
	</g>
	<g id="XMLID_65_">
		<defs>
			<path id="XMLID_66_" d="M-111.4,753.4c13.2,0.2,26.1-8.9,39.7-10.3c10.1-1,19.5-1.7,29-4.8c11-3.6,22.6-8.3,33.6-13.2
				C6,718.5,15.7,707,29.1,699c6.3-3.7,12.4-5.5,18.3-10.7c5-4.5,10-12.1,16.4-14c7.8-2.3,16.4,2.6,24.1,1.2
				c6.4-1.2,16.5-9.9,21.6-14.1c7.6-6.3,13.3-13.9,21-20.2c3.4-2.8,6.4-5.2,9.6-8.2c3.3-3.1,4.3-8.5,10-3.4c7.5-5.8,18.4,3,22.9,8.8
				c5.7,7.3,7.7,18.4,15.9,24.4c4.7,3.4,9.3,3.2,14.5,5.2c4.9,1.9,7.8,4.2,12.4,7.2c5.6,3.6,12.5,5.6,18.2,9.3
				c6,3.9,10.7,9.3,16.9,13c10.8,6.4,23.8,8.4,35.2,12.7c13.2,5.1,24.7,10.3,38.5,12.2c19.7,2.8,37.8,11.6,57.4,14.6
				c15.8,2.4,30.8,3.8,46.6,6.1c7.9,1.1,15.1,4.1,23,4.7c10.6,0.8,21.3-0.6,31.8,0.7c13.7,1.7,26.9,3.5,40.6,4.9
				c13.1,1.4,13.6,31,13.6,31l-650.8,0.9C-113.1,785.3-115.5,758.3-111.4,753.4z"/>
		</defs>
		<clipPath id="XMLID_126_">
			<use xlink:href="#XMLID_66_"  style="overflow:visible;"/>
		</clipPath>
		<path id="XMLID_70_" class="st24" d="M-111.4,753.4c13.2,0.2,26.1-8.9,39.7-10.3c10.1-1,19.5-1.7,29-4.8
			c11-3.6,22.6-8.3,33.6-13.2C6,718.5,15.7,707,29.1,699c6.3-3.7,12.4-5.5,18.3-10.7c5-4.5,10-12.1,16.4-14
			c7.8-2.3,16.4,2.6,24.1,1.2c6.4-1.2,16.5-9.9,21.6-14.1c7.6-6.3,13.3-13.9,21-20.2c3.4-2.8,6.4-5.2,9.6-8.2
			c3.3-3.1,4.3-8.5,10-3.4c7.5-5.8,18.4,3,22.9,8.8c5.7,7.3,7.7,18.4,15.9,24.4c4.7,3.4,9.3,3.2,14.5,5.2c4.9,1.9,7.8,4.2,12.4,7.2
			c5.6,3.6,12.5,5.6,18.2,9.3c6,3.9,10.7,9.3,16.9,13c10.8,6.4,23.8,8.4,35.2,12.7c13.2,5.1,24.7,10.3,38.5,12.2
			c19.7,2.8,37.8,11.6,57.4,14.6c15.8,2.4,30.8,3.8,46.6,6.1c7.9,1.1,15.1,4.1,23,4.7c10.6,0.8,21.3-0.6,31.8,0.7
			c13.7,1.7,26.9,3.5,40.6,4.9c13.1,1.4,13.6,31,13.6,31l-650.8,0.9C-113.1,785.3-115.5,758.3-111.4,753.4z"/>
		<linearGradient id="XMLID_127_" gradientUnits="userSpaceOnUse" x1="156.2151" y1="688.1655" x2="156.2151" y2="618.6092">
			<stop  offset="0" style="stop-color:#3879D6"/>
			<stop  offset="0.2017" style="stop-color:#74A1E2"/>
			<stop  offset="0.3961" style="stop-color:#A6C3ED"/>
			<stop  offset="0.578" style="stop-color:#CCDDF5"/>
			<stop  offset="0.7446" style="stop-color:#E8F0FA"/>
			<stop  offset="0.8905" style="stop-color:#F9FBFE"/>
			<stop  offset="1" style="stop-color:#FFFFFF"/>
		</linearGradient>
		<path id="XMLID_69_" class="st25" d="M72.6,672.6c15,7.7,26.6-2.6,40.5-8c0.5,0.9,0.8,1.1,1.4,1.9c3.4-1.5,8.7-6.1,12.4-4.3
			c0.3,4.4,0.4,8.7,0.8,12.9c7.3-2.4,6.7-16,16.6-7.3c4.9,4.4,14.5,20.9,21.3,20.4c0.1-3,1.2-5.6,1.4-8.5c0.7,0,1.6-0.2,2.3-0.2
			c0.9-3.4-0.8-20.4,1.3-21.2c5.1-1.8,6.9,14,10.6,14.3c-0.6-6.9,6.7-1.3,9.9,0.3c5.5,2.6,8.7,3.1,13.5,3.6
			c9.2,0.9,26.9,14.3,35.3,8.7c-1.9-3.3-8.6-6.5-11.8-9.4c-6-5.3-10.7-9.4-18.1-12.5c-9.2-3.8-14.3-4.3-20.5-12.5
			c-2.8-3.7-5.8-6.9-7.9-11c-1.9-3.7-2.4-8.7-5.2-11.7c-6.7-7.2-21.5-10.8-30.8-9.2c-10.5,1.8-15.6,14.9-23.2,21.2
			c-6.4,5.3-12.2,10.9-18,16.8c-3.2,3.3-6.3,8.7-9.7,11.4c-6.5,5.3-14.3,0.2-20.7,3.7c-0.1,1.4-0.2,0.3,0.5,1.4
			C75.3,672.7,75.8,673.4,72.6,672.6z"/>
		<path id="XMLID_68_" class="st26" d="M158.1,619.3l4.1,9.7l-10.3,2.5l-5.9,11.5l-1.6-5L106,688.9l0.6-8.7l-25.3,8.4l-10-1.6
			c0,0-10.6-3.7-20,9.4s-22.5,11.5-29,17.5s-25,14.4-25,14.4l-34,6.6l28.1-15l39.3-27.2l51.8-32.8h19.7l24-21.5l15-14.4l14.4,0.3
			L158.1,619.3z"/>
		<path id="XMLID_67_" class="st26" d="M144.1,653l-2.1,19.8c-1.1,10.5-5.2,20.5-11.7,28.8l-12.4,15.7l9.4-24.7
			c0,0-15,15.6-45.9,20.6c0,0,37.8-15.9,47.8-35.9C139.1,657.4,144.1,653,144.1,653z"/>
	</g>
</g>
<g id="Mountain_3_">
	<g id="XMLID_110_">
		<defs>
			<path id="XMLID_111_" d="M876.7,964.2c15.3-6.6,31.4-13.6,44.6-24c4.1-3.2,5.4-4.5,9.5-6.3c2.9-1.3,5,0.3,8.2-4
				c10.6,2.9,27.7,19,39,23c11.4,4,23.2,6.3,34.6,9.8c5.2,1.6,6.3,12.2,6.3,12.2H880.1c0,0-2.2-8.3-2.5-8.6
				C877.6,963.8,878,961.7,876.7,964.2z"/>
		</defs>
		<clipPath id="XMLID_128_">
			<use xlink:href="#XMLID_111_"  style="overflow:visible;"/>
		</clipPath>
		<path id="XMLID_113_" class="st27" d="M876.7,964.2c15.3-6.6,31.4-13.6,44.6-24c4.1-3.2,5.4-4.5,9.5-6.3c2.9-1.3,5,0.3,8.2-4
			c10.6,2.9,27.7,19,39,23c11.4,4,23.2,6.3,34.6,9.8c5.2,1.6,6.3,12.2,6.3,12.2H880.1c0,0-2.2-8.3-2.5-8.6
			C877.6,963.8,878,961.7,876.7,964.2z"/>
		<path id="XMLID_112_" class="st28" d="M939,926.6l1.4,7.1l-1.6,2.4l4.5,5.4l-5.9-2.6l-2.8-2.8l-6.8,4.7l-3.5,4.5l-5.9,3.3
			l24.3,9.9c0,0-36.5,1.2-37.5,0.9c-0.9-0.2-15.8,1.2-15.9,0.4c-0.1-0.8,3.2-11.9,3.2-11.9l23.1-12.7L939,926.6z"/>
	</g>
	<g id="XMLID_106_">
		<defs>
			<path id="XMLID_107_" d="M508.7,958.6c9-2.4,14.8-10.2,23-14c10.1-4.7,22.2-7.8,25.2-20.5c2.7,0.3,4.1-0.3,6.2-1.6
				c0.6,0.8,1,1.1,1.6,2.1c5.7-4.5,6.9,5.1,10.4,8.4c5.7,5.3,14,5.5,20.5,8.1c10.5,4.2,20.2,8.7,31.3,12
				c11.3,3.3,27.7,12.5,38.5,16.1c-8.8-0.9-147.2,4-157.4,2.7C506.9,968.6,507,958.7,508.7,958.6z"/>
		</defs>
		<clipPath id="XMLID_129_">
			<use xlink:href="#XMLID_107_"  style="overflow:visible;"/>
		</clipPath>
		<path id="XMLID_109_" class="st29" d="M508.7,958.6c9-2.4,14.8-10.2,23-14c10.1-4.7,22.2-7.8,25.2-20.5c2.7,0.3,4.1-0.3,6.2-1.6
			c0.6,0.8,1,1.1,1.6,2.1c5.7-4.5,6.9,5.1,10.4,8.4c5.7,5.3,14,5.5,20.5,8.1c10.5,4.2,20.2,8.7,31.3,12
			c11.3,3.3,27.7,12.5,38.5,16.1c-8.8-0.9-147.2,4-157.4,2.7C506.9,968.6,507,958.7,508.7,958.6z"/>
		<polygon id="XMLID_108_" class="st30" points="569.3,917.6 560.8,926.1 558.5,929.9 557,938.8 544.8,953.4 547.6,944.5 
			539.6,946.4 523.1,956.7 500,964.7 499.1,955.8 519.3,945.4 541.5,931.3 		"/>
	</g>
	<g id="XMLID_102_">
		<defs>
			<path id="XMLID_103_" d="M687.3,964.2c5-2.1,10.9-1.8,16.3-3.3c7.8-2.3,14.4-6,21.6-9.7c10.7-5.5,23.9-7.6,34.3-13.5
				c5.8-3.3,9.4-7.6,15.9-9.6c5.1-1.6,9.2-2.1,13.8-5.4c3.5-2.5,6.5-8.4,9.9-10.1c3-1.5,6.7-0.2,9.9-1.4c5.6-2.1,10.4-6,17-2.2
				c2.8,1.6,4,4.5,5.8,7c4,5.6,6.2,7,12.9,9.6c16.1,6.2,30,13,46.3,18.6c19.6,6.7,77,15.2,97.5,16.4c0.2,3,10.7,22,10.7,22
				l-313.1,0.7C685.9,983.4,687,968.9,687.3,964.2z"/>
		</defs>
		<clipPath id="XMLID_130_">
			<use xlink:href="#XMLID_103_"  style="overflow:visible;"/>
		</clipPath>
		<path id="XMLID_105_" class="st31" d="M687.3,964.2c5-2.1,10.9-1.8,16.3-3.3c7.8-2.3,14.4-6,21.6-9.7c10.7-5.5,23.9-7.6,34.3-13.5
			c5.8-3.3,9.4-7.6,15.9-9.6c5.1-1.6,9.2-2.1,13.8-5.4c3.5-2.5,6.5-8.4,9.9-10.1c3-1.5,6.7-0.2,9.9-1.4c5.6-2.1,10.4-6,17-2.2
			c2.8,1.6,4,4.5,5.8,7c4,5.6,6.2,7,12.9,9.6c16.1,6.2,30,13,46.3,18.6c19.6,6.7,77,15.2,97.5,16.4c0.2,3,10.7,22,10.7,22
			l-313.1,0.7C685.9,983.4,687,968.9,687.3,964.2z"/>
		<path id="XMLID_104_" class="st32" d="M826.1,900.2l-15.8,16l7.3,7.1l13.2,1.9l-13.7,0.9l-7.3-4.5l-8-4.7l-4,12.5l3.3,8.5
			l41.9,14.6l12.7,13.2c0,0-17,3.3-18.4,2.8c-1.4-0.5-70.7,1.9-70.7,1.9l-44.3-3.3l0.9-23.1l24-18.4L826.1,900.2z"/>
	</g>
	<g id="XMLID_96_">
		<defs>
			<path id="XMLID_97_" d="M492.2,972c10,0.1,19.7-6.7,30-7.8c7.7-0.8,14.7-1.3,21.9-3.6c8.3-2.7,17-6.3,25.3-10
				c11.4-5.1,18.7-13.7,28.8-19.7c4.7-2.8,9.4-4.1,13.8-8.1c3.8-3.4,7.5-9.2,12.4-10.6c5.9-1.8,12.4,2,18.2,0.9
				c4.8-0.9,12.5-7.4,16.3-10.6c5.7-4.7,10.1-10.5,15.8-15.2c2.6-2.1,4.9-3.9,7.3-6.2c2.5-2.3,3.2-6.4,7.6-2.6
				c5.7-4.4,13.9,2.2,17.3,6.6c4.3,5.5,5.8,13.9,12,18.4c3.5,2.6,7,2.4,10.9,3.9c3.7,1.4,5.9,3.2,9.4,5.5c4.2,2.7,9.5,4.2,13.7,7
				c4.5,2.9,8.1,7,12.8,9.8c8.1,4.8,18,6.3,26.6,9.6c10,3.8,18.6,7.8,29.1,9.2c14.9,2.1,28.5,8.8,43.3,11
				c11.9,1.8,23.2,2.9,35.1,4.6c5.9,0.9,11.4,3.1,17.3,3.5c8,0.6,16.1-0.5,24,0.5c10.3,1.3,20.3,2.6,30.6,3.7
				c9.9,1,10.2,23.4,10.2,23.4l-491.2,0.7C490.9,996.1,489,975.7,492.2,972z"/>
		</defs>
		<clipPath id="XMLID_131_">
			<use xlink:href="#XMLID_97_"  style="overflow:visible;"/>
		</clipPath>
		<path id="XMLID_101_" class="st33" d="M492.2,972c10,0.1,19.7-6.7,30-7.8c7.7-0.8,14.7-1.3,21.9-3.6c8.3-2.7,17-6.3,25.3-10
			c11.4-5.1,18.7-13.7,28.8-19.7c4.7-2.8,9.4-4.1,13.8-8.1c3.8-3.4,7.5-9.2,12.4-10.6c5.9-1.8,12.4,2,18.2,0.9
			c4.8-0.9,12.5-7.4,16.3-10.6c5.7-4.7,10.1-10.5,15.8-15.2c2.6-2.1,4.9-3.9,7.3-6.2c2.5-2.3,3.2-6.4,7.6-2.6
			c5.7-4.4,13.9,2.2,17.3,6.6c4.3,5.5,5.8,13.9,12,18.4c3.5,2.6,7,2.4,10.9,3.9c3.7,1.4,5.9,3.2,9.4,5.5c4.2,2.7,9.5,4.2,13.7,7
			c4.5,2.9,8.1,7,12.8,9.8c8.1,4.8,18,6.3,26.6,9.6c10,3.8,18.6,7.8,29.1,9.2c14.9,2.1,28.5,8.8,43.3,11c11.9,1.8,23.2,2.9,35.1,4.6
			c5.9,0.9,11.4,3.1,17.3,3.5c8,0.6,16.1-0.5,24,0.5c10.3,1.3,20.3,2.6,30.6,3.7c9.9,1,10.2,23.4,10.2,23.4l-491.2,0.7
			C490.9,996.1,489,975.7,492.2,972z"/>
		<linearGradient id="XMLID_132_" gradientUnits="userSpaceOnUse" x1="694.1518" y1="922.7374" x2="694.1518" y2="870.2342">
			<stop  offset="0" style="stop-color:#3879D6"/>
			<stop  offset="0.2017" style="stop-color:#74A1E2"/>
			<stop  offset="0.3961" style="stop-color:#A6C3ED"/>
			<stop  offset="0.578" style="stop-color:#CCDDF5"/>
			<stop  offset="0.7446" style="stop-color:#E8F0FA"/>
			<stop  offset="0.8905" style="stop-color:#F9FBFE"/>
			<stop  offset="1" style="stop-color:#FFFFFF"/>
		</linearGradient>
		<path id="XMLID_100_" class="st34" d="M631,911c11.3,5.8,20.1-2,30.5-6.1c0.4,0.7,0.6,0.9,1,1.4c2.6-1.2,6.6-4.6,9.3-3.3
			c0.2,3.4,0.3,6.5,0.6,9.8c5.5-1.8,5.1-12.1,12.5-5.5c3.7,3.3,11,15.7,16.1,15.4c0.1-2.3,0.9-4.2,1.1-6.5c0.6,0,1.2-0.1,1.7-0.1
			c0.7-2.6-0.6-15.4,1-16c3.8-1.4,5.2,10.6,8,10.8c-0.4-5.2,5.1-1,7.5,0.2c4.2,2,6.6,2.4,10.2,2.7c6.9,0.7,20.3,10.8,26.6,6.6
			c-1.4-2.5-6.5-4.9-8.9-7.1c-4.5-4-8.1-7.1-13.7-9.4c-6.9-2.8-10.8-3.3-15.5-9.4c-2.1-2.8-4.4-5.2-6-8.3c-1.4-2.8-1.8-6.6-3.9-8.8
			c-5.1-5.4-16.2-8.1-23.2-6.9c-7.9,1.4-11.8,11.3-17.5,16c-4.8,4-9.2,8.2-13.6,12.7c-2.4,2.5-4.8,6.5-7.3,8.6
			c-4.9,4-10.8,0.1-15.6,2.8c-0.1,1.1-0.1,0.2,0.4,1.1C633.1,911,633.4,911.6,631,911z"/>
		<path id="XMLID_99_" class="st35" d="M695.6,870.7l3.1,7.3l-7.8,1.9l-4.5,8.7l-1.2-3.8l-29,38.4l0.5-6.6l-19.1,6.4l-7.5-1.2
			c0,0-8-2.8-15.1,7.1c-7.1,9.9-17,8.7-21.9,13.2c-4.9,4.5-18.8,10.8-18.8,10.8l-25.7,4.9l21.2-11.3l29.7-20.5l39.1-24.7h14.8
			l18.1-16.3l11.3-10.8l10.8,0.2L695.6,870.7z"/>
		<path id="XMLID_98_" class="st35" d="M685,896.2l-1.6,14.9c-0.8,7.9-3.9,15.5-8.9,21.8l-9.4,11.9l7.1-18.6
			c0,0-11.3,11.8-34.6,15.6c0,0,28.5-12,36-27.1C681.2,899.5,685,896.2,685,896.2z"/>
	</g>
</g>
</svg>
